<?xml version="1.0"?>
<svg xmlns="http://www.w3.org/2000/svg" width="512" height="512" viewBox="0 0 128 128"><g><path d="M65.5,14.25H80.75a1.75,1.75,0,0,0,0-3.5H65.5a1.75,1.75,0,0,0,0,3.5Z"/><path d="M51.77,102.6a1.75,1.75,0,0,0-1.75-1.75h-9a1.75,1.75,0,1,0,0,3.5h9A1.751,1.751,0,0,0,51.77,102.6Z"/><path d="M47.9,96h6a1.75,1.75,0,1,0,0-3.5h-6a1.75,1.75,0,0,0,0,3.5Z"/><path d="M68.417,102.058h-6a1.75,1.75,0,0,0,0,3.5h6a1.75,1.75,0,0,0,0-3.5Z"/><path d="M87.645,100.847h-9a1.75,1.75,0,0,0,0,3.5h9a1.75,1.75,0,0,0,0-3.5Z"/><path d="M82.52,109.625h-9a1.75,1.75,0,1,0,0,3.5h9a1.75,1.75,0,0,0,0-3.5Z"/><path d="M69.02,97.417h9a1.75,1.75,0,1,0,0-3.5h-9a1.75,1.75,0,0,0,0,3.5Z"/><path d="M54.52,111.692h-9a1.75,1.75,0,1,0,0,3.5h9a1.75,1.75,0,0,0,0-3.5Z"/><path d="M118.45,112.755a8.63,8.63,0,0,0-7.716-4.063,8.091,8.091,0,0,0-9.838-1.614,8.519,8.519,0,0,0-.9-.2V81.69a1.75,1.75,0,0,0-1.75-1.75H94.11V33.5h9.7a1.751,1.751,0,0,0,1.575-2.513L93.148,5.737a1.752,1.752,0,0,0-1.575-.987H36.427a1.752,1.752,0,0,0-1.575.987L22.617,30.987A1.751,1.751,0,0,0,24.192,33.5h9.7V79.94H29.75A1.75,1.75,0,0,0,28,81.69v25.446a8.086,8.086,0,0,0-7.876-.058,8.617,8.617,0,0,0-10.7,5.764A10.335,10.335,0,0,0,4.75,121.5a1.749,1.749,0,0,0,1.75,1.75h115a1.749,1.749,0,0,0,1.75-1.75A10.393,10.393,0,0,0,118.45,112.755Zm-32.761,7H42.309a10.386,10.386,0,0,0-4.631-7,8.558,8.558,0,0,0-6.178-3.98V89.442h65v17.505a8.634,8.634,0,0,0-6.306,5.895A10.318,10.318,0,0,0,85.689,119.75ZM84.61,33.5V48.13H67.167V46.875a1.749,1.749,0,0,0-1.75-1.75h-12a1.749,1.749,0,0,0-1.75,1.75V48.13H43.39V33.5ZM67.17,79.94V52.88c0-.01,0-.019,0-.029V51.63H84.61V79.94Zm-6-31.315h2.5v2.5h-2.5Zm-6,1.284c0-.01,0-.019,0-.029s0-.019,0-.029V48.625h2.5v2.5h-2.5ZM43.39,51.63h8.277v1.245a1.749,1.749,0,0,0,1.75,1.75H63.67V79.94H43.39ZM31.5,83.442h65v2.5h-65Zm59.11-3.5h-2.5V33.5h2.5ZM37.523,8.25H90.477L101.015,30H26.985ZM37.39,33.5h2.5V79.94h-2.5Zm-7.64,86.25H8.476a6.817,6.817,0,0,1,3.309-4.247,1.753,1.753,0,0,0,.873-1.19,5.113,5.113,0,0,1,5-4.092,5.018,5.018,0,0,1,1.984.4,1.751,1.751,0,0,0,1.7-.186,4.542,4.542,0,0,1,2.657-.853,4.593,4.593,0,0,1,3.759,1.951,1.744,1.744,0,0,0,1.716.723,5.376,5.376,0,0,1,.87-.073,5.116,5.116,0,0,1,4.5,2.671,1.737,1.737,0,0,0,.668.684,6.891,6.891,0,0,1,3.229,4.211Zm68.5,0h-9a6.818,6.818,0,0,1,3.31-4.247,1.756,1.756,0,0,0,.873-1.19,5.112,5.112,0,0,1,5-4.092,5.01,5.01,0,0,1,1.983.4,1.751,1.751,0,0,0,1.7-.186,4.542,4.542,0,0,1,2.657-.853,4.591,4.591,0,0,1,3.759,1.951,1.748,1.748,0,0,0,1.717.723,5.37,5.37,0,0,1,.868-.073,5.115,5.115,0,0,1,4.5,2.671,1.743,1.743,0,0,0,.668.684,6.888,6.888,0,0,1,3.229,4.211Z"/></g></svg>